<svg width="20" height="20" viewBox="0 0 20 20" fill="none" xmlns="http://www.w3.org/2000/svg">
<path d="M5.83332 15.8333C6.7538 15.8333 7.49999 15.0871 7.49999 14.1667C7.49999 13.2462 6.7538 12.5 5.83332 12.5C4.91285 12.5 4.16666 13.2462 4.16666 14.1667C4.16666 15.0871 4.91285 15.8333 5.83332 15.8333Z" stroke="#1E1E1E" stroke-linecap="round" stroke-linejoin="round"/>
<path d="M14.1667 15.8333C15.0871 15.8333 15.8333 15.0871 15.8333 14.1667C15.8333 13.2462 15.0871 12.5 14.1667 12.5C13.2462 12.5 12.5 13.2462 12.5 14.1667C12.5 15.0871 13.2462 15.8333 14.1667 15.8333Z" stroke="#1E1E1E" stroke-linecap="round" stroke-linejoin="round"/>
<path d="M4.16666 14.1667H2.49999V10.8333M1.66666 4.16666H10.8333V14.1667M7.49999 14.1667H12.5M15.8333 14.1667H17.5V9.16666H10.8333M10.8333 5H15L17.5 9.16666" stroke="#1E1E1E" stroke-linecap="round" stroke-linejoin="round"/>
<path d="M2.5 7.5H5.83333" stroke="#1E1E1E" stroke-linecap="round" stroke-linejoin="round"/>
</svg>
