<svg width="20" height="20" viewBox="0 0 20 20" fill="none" xmlns="http://www.w3.org/2000/svg">
<path d="M4.16666 17.5V4.16667C4.16666 3.72464 4.34225 3.30072 4.65481 2.98816C4.96737 2.67559 5.3913 2.5 5.83332 2.5H14.1667C14.6087 2.5 15.0326 2.67559 15.3452 2.98816C15.6577 3.30072 15.8333 3.72464 15.8333 4.16667V17.5L13.3333 15.8333L11.6667 17.5L9.99999 15.8333L8.33332 17.5L6.66666 15.8333L4.16666 17.5Z" stroke="black" stroke-linecap="round" stroke-linejoin="round"/>
<path d="M12.5 11.6667V10C12.5 9.55798 12.3244 9.13405 12.0118 8.82149C11.6993 8.50893 11.2754 8.33334 10.8333 8.33334H7.5L9.16667 6.66667M9.16667 10L7.5 8.33334" stroke="black" stroke-linecap="round" stroke-linejoin="round"/>
</svg>
