<svg width="20" height="20" viewBox="0 0 20 20" fill="none" xmlns="http://www.w3.org/2000/svg">
<path d="M16.6667 12.0833L16.05 8.08001C15.9895 7.68676 15.7904 7.32811 15.4885 7.0689C15.1867 6.8097 14.802 6.66702 14.4042 6.66667H5.59667C5.19851 6.66662 4.81349 6.80912 4.51129 7.06836C4.20909 7.32761 4.00969 7.68647 3.94917 8.08001L2.795 15.58C2.75847 15.8175 2.77374 16.0601 2.83976 16.2912C2.90577 16.5222 3.02097 16.7363 3.17746 16.9187C3.33394 17.101 3.52802 17.2474 3.74637 17.3478C3.96472 17.4481 4.20219 17.5 4.4425 17.5H10" stroke="#1E1E1E" stroke-linecap="round" stroke-linejoin="round"/>
<path d="M11.6667 15.8333L14.1667 18.3333L18.3333 14.1667M11.6667 4.16667C11.6667 3.72464 11.4911 3.30072 11.1785 2.98816C10.866 2.67559 10.442 2.5 10 2.5C9.55798 2.5 9.13406 2.67559 8.8215 2.98816C8.50894 3.30072 8.33334 3.72464 8.33334 4.16667" stroke="#1E1E1E" stroke-linecap="round" stroke-linejoin="round"/>
</svg>
