<?xml version="1.0" encoding="UTF-8"?>
<svg width="44px" height="35px" viewBox="0 0 44 35" version="1.1" xmlns="http://www.w3.org/2000/svg" xmlns:xlink="http://www.w3.org/1999/xlink">
    <title>header/logo/n11_new@1x</title>
    <defs>
        <path d="M27.553731,13.9207039 C27.553731,21.609342 21.3867085,27.8414079 13.7772838,27.8422532 C6.16785914,27.8422532 0.00083666022,21.6101873 0,13.9207039 C0,6.23206591 6.16785914,0 13.7772838,0 C21.3867085,0 27.553731,6.23291128 27.553731,13.9207039" id="path-1"/>
    </defs>
    <g id="Symbols" stroke="none" stroke-width="1" fill="none" fill-rule="evenodd">
        <g id="Components/Header/Default-Copy-2" transform="translate(-154.000000, -22.000000)">
            <g id="header/logo/n11_new" transform="translate(154.000000, 22.000000)">
                <g id="Group" transform="translate(16.446269, 0.000000)">
                    <g id="Path">
                        <path d="M21.6485832,11.7252796 C21.6485832,16.1186663 18.125407,19.6793637 13.7772838,19.6793637 C9.42832402,19.6793637 5.90431117,16.1186663 5.90431117,11.7252796 C5.90431117,7.33189293 9.42832402,3.77035011 13.7781205,3.77035011 C18.125407,3.77035011 21.6485832,7.33104756 21.6494198,11.7252796" fill="#231F20" fill-rule="nonzero"/>
                        <g transform="translate(0.000000, 7.157747)">
                            <mask id="mask-2" fill="white">
                                <use xlink:href="#path-1"/>
                            </mask>
                            <use id="Mask" fill="#EA222F" fill-rule="nonzero" xlink:href="#path-1"/>
                            <path d="M13.7772838,-0.183448199 C13.6434182,-0.183448199 13.5103892,-0.177551332 13.3765236,-0.172496875 L13.3765236,28.097084 C13.5103892,28.1004536 13.6434182,28.1071929 13.7772838,28.1071929 C13.9119861,28.1071929 14.0450151,28.1004536 14.1788807,28.097084 L14.1788807,-0.173339284 C14.0450151,-0.177551332 13.9119861,-0.183448199 13.7772838,-0.184290609" fill="#231F20" fill-rule="nonzero" mask="url(#mask-2)"/>
                        </g>
                        <path d="M10.7360239,1.25791116 C10.7360239,1.95280511 10.2097647,2.51582137 9.56051633,2.51582137 C8.91210466,2.51582137 8.38500872,1.95280511 8.38500872,1.25791116 C8.38500872,0.563862583 8.91210466,0.000846319092 9.56051633,0.000846319092 C10.2097647,0.000846319092 10.7360239,0.563862583 10.7360239,1.25875653" fill="#231F20" fill-rule="nonzero"/>
                        <path d="M19.0950962,1.25791116 C19.0950962,1.95280511 18.5688369,2.51582137 17.9187519,2.51582137 C17.2695036,2.51582137 16.744081,1.95280511 16.744081,1.25706579 C16.744081,0.563017213 17.2703403,-0.000844420441 17.9187519,0 C18.5688369,0 19.0942595,0.562171844 19.0950962,1.25706579" fill="#231F20" fill-rule="nonzero"/>
                    </g>
                    <g transform="translate(3.287238, 13.635815)" fill="#231F20" fill-rule="nonzero" id="Path">
                        <path d="M19.3912739,2.92582476 L19.3912739,13.3280997 C19.3912739,14.2106658 19.3067712,14.7990431 19.1377659,15.0932318 C18.8926244,15.5573398 18.3655285,15.7906619 17.5539681,15.7906619 C16.8478268,15.7906619 16.357544,15.6461036 16.0822827,15.3595233 C15.8061849,15.0729429 15.6689726,14.4896378 15.6689726,13.6079171 L15.6689726,6.8728562 C15.6689726,6.25404553 15.660606,5.88377357 15.6455461,5.75865885 C15.5995298,5.41797483 15.4531143,5.12378615 15.2088095,4.87609281 C15.0557007,4.72223551 14.5729477,4.63685317 13.7613873,4.62079114 C12.8870774,4.60641985 12.4503407,4.17950812 12.4503407,3.34428279 C12.4503407,2.84889611 12.7264386,2.48116026 13.2777977,2.24107525 C13.8291568,2.00183561 14.3972491,1.76513207 14.9778913,1.53181002 C15.3451851,1.22240468 15.7133156,0.921453045 16.0814461,0.626418997 C16.6177453,0.207960962 17.1841643,0 17.7815397,0 C18.5479204,0 19.0382033,0.309405334 19.2523883,0.928216003 C19.3452576,1.23762134 19.3904373,1.90461808 19.3904373,2.92497939"/>
                        <path d="M6.93925986,2.92667013 L6.93925986,13.3280997 C6.93925986,14.2106658 6.85392052,14.7990431 6.68658848,15.0932318 C6.44061037,15.5573398 5.91351443,15.7906619 5.10111736,15.7906619 C4.39664945,15.7906619 3.90636657,15.6461036 3.62943203,15.3595233 C3.35417082,15.0729429 3.21695854,14.4887924 3.21695854,13.6070718 L3.21695854,6.8728562 C3.21695854,6.25404553 3.20859194,5.8829282 3.19436872,5.75865885 C3.14835241,5.4188202 3.00193687,5.12378615 2.75763208,4.87609281 C2.60452326,4.72223551 2.12177032,4.63769854 1.3102099,4.62163651 C0.435899974,4.60726522 0,4.17950812 0,3.34512816 C0,2.84974148 0.276097873,2.482851 0.827456957,2.24192062 C1.37881604,2.00183561 1.94523501,1.76513207 2.52671386,1.53265539 C2.89568102,1.22325005 3.26297486,0.922298415 3.63026869,0.627264366 C4.16573123,0.208806332 4.73382352,0.000845369765 5.33119892,0.000845369765 C6.09757968,0.000845369765 6.58702591,0.311096074 6.80204759,0.929061373 C6.89408021,1.23931208 6.94009652,1.90546345 6.94009652,2.92667013"/>
                    </g>
                </g>
                <path d="M1.20045228,14.0200118 L2.34100503,14.0200118 C3.130366,14.0200118 3.54063677,14.4337243 3.54063677,15.2611495 L3.54063677,16.1772865 L3.48237832,16.8571348 L3.54063677,16.8571348 C4.35953723,15.2022845 6.14421509,13.6651641 8.83477082,13.6651641 C12.3155081,13.6651641 14.0411069,15.5861501 14.0411069,19.3991042 L14.0411069,28.1853394 C14.0411069,29.0127646 13.6316567,29.4264771 12.8127562,29.4264771 L11.554866,29.4264771 C10.7359656,29.4264771 10.3265154,29.0127646 10.3265154,28.1853394 L10.3265154,20.1676644 C10.3265154,18.1579665 9.74146923,17.0942526 7.98633086,17.0942526 C6.69972172,17.0942526 5.64614638,17.5668301 4.85678541,18.5128142 C4.06742444,19.4587982 3.68669316,20.641071 3.68669316,22.0297855 L3.68669316,28.1861685 C3.68669316,29.0135937 3.27724293,29.4273062 2.48706142,29.4273062 L1.19963174,29.4273062 C0.410270773,29.4273062 0,29.0135937 0,28.1861685 L0,15.2611495 C0.000820541546,14.4337243 0.410270773,14.0200118 1.20045228,14.0200118 Z" id="Path-Copy" fill="#231F20" fill-rule="nonzero"/>
            </g>
        </g>
    </g>
</svg>